<svg xmlns="http://www.w3.org/2000/svg" viewBox="0 0 64 64">
  <defs>
    <linearGradient id="g" x1="8" y1="6" x2="56" y2="58" gradientUnits="userSpaceOnUse">
      <stop stop-color="#2563eb"/>
      <stop offset="1" stop-color="#7c3aed"/>
    </linearGradient>
  </defs>
  <rect x="3" y="3" width="58" height="58" rx="16" fill="url(#g)"/>
  <path d="M18 20c0-4 3-7 8-7h12c5 0 8 3 8 7v24c0 4-3 7-8 7H26c-5 0-8-3-8-7V20Z" fill="#fff" opacity=".16"/>
  <path d="M24 26c0-4 3-7 8-7 4 0 7 1 10 4l-4 5c-2-2-4-3-6-3-2 0-3 1-3 2 0 2 2 2 6 3 6 1 9 4 9 9 0 6-5 10-12 10-5 0-10-2-13-6l5-5c2 3 5 5 8 5 2 0 4-1 4-3 0-2-2-2-6-3-6-1-9-4-9-9 0-1 0-1 0-2Z" fill="#fff"/>
  <circle cx="47" cy="17" r="5" fill="#8fd2c3" stroke="#fff" stroke-width="2"/>
</svg>